<?xml version="1.0" encoding="utf-8"?>
<!-- Generator: Adobe Illustrator 27.1.1, SVG Export Plug-In . SVG Version: 6.00 Build 0)  -->
<svg version="1.1" id="Lager_1" xmlns="http://www.w3.org/2000/svg" xmlns:xlink="http://www.w3.org/1999/xlink" x="0px" y="0px"
	 viewBox="0 0 200 200" style="enable-background:new 0 0 200 200;" xml:space="preserve">
<style type="text/css">
	.st0{fill:url(#big-wheel-one_00000088127940719098096070000005347437331559508924_);stroke:#000000;stroke-miterlimit:10;}
	.st1{fill:url(#big-wheel-three_00000070828409022343289710000002879509847443308182_);stroke:#000000;stroke-miterlimit:10;}
	.st2{fill:#FF683F;stroke:#000000;stroke-miterlimit:10;}
	.st3{fill:url(#big-wheel-one_00000000930732818562176730000017197212158695772835_);stroke:#000000;stroke-miterlimit:10;}
</style>
<g>
	<g>
		<g>
			
				<linearGradient id="big-wheel-one_00000053539867648340125630000016019892097487459504_" gradientUnits="userSpaceOnUse" x1="23.4" y1="167.2" x2="83.4" y2="167.2" gradientTransform="matrix(1 0 0 -1 0 300)">
				<stop  offset="0" style="stop-color:#FFFFFF"/>
				<stop  offset="0.8155" style="stop-color:#000000"/>
			</linearGradient>
			
				<path id="big-wheel-one" style="fill:url(#big-wheel-one_00000053539867648340125630000016019892097487459504_);stroke:#000000;stroke-miterlimit:10;" d="
				M77.6,133c0-1.6-0.1-3.1-0.4-4.6l6.2-5.6c-0.4-1.3-0.9-2.5-1.5-3.7l-8.3,0.4c-1.7-2.6-4-4.8-6.5-6.6l0.5-8.3
				c-1.2-0.6-2.4-1.1-3.7-1.6l-5.6,6.2c-1.5-0.3-3-0.5-4.6-0.5s-3.1,0.1-4.6,0.4l-5.6-6.2c-1.3,0.4-2.5,0.9-3.7,1.5l0.4,8.3
				c-2.6,1.7-4.8,3.9-6.6,6.5l-8.3-0.5c-0.6,1.2-1.1,2.4-1.6,3.7l6.2,5.6c-0.3,1.5-0.5,3-0.5,4.6s0.1,3.1,0.4,4.6l-6.2,5.6
				c0.4,1.3,0.9,2.5,1.5,3.7l8.3-0.4c1.7,2.6,4,4.8,6.5,6.6l-0.5,8.3c1.2,0.6,2.4,1.1,3.7,1.6l5.6-6.2c1.5,0.3,3,0.5,4.6,0.5
				s3.1-0.1,4.6-0.4l5.6,6.2c1.3-0.4,2.5-0.9,3.7-1.5l-0.4-8.3c2.6-1.7,4.8-3.9,6.6-6.5l8.3,0.5c0.6-1.2,1.1-2.4,1.6-3.7l-6.2-5.6
				C77.4,136.1,77.6,134.6,77.6,133z M66.4,132.9c0,0.9-0.1,1.7-0.2,2.5l3.3,3c-0.2,0.7-0.5,1.4-0.8,2l-4.5-0.2
				c-0.9,1.4-2.2,2.6-3.6,3.5l0.2,4.5c-0.6,0.3-1.3,0.6-2,0.8l-3-3.4c-0.8,0.2-1.6,0.2-2.5,0.2s-1.7-0.1-2.5-0.2l-3,3.3
				c-0.7-0.2-1.4-0.5-2-0.8l0.2-4.5c-1.4-0.9-2.6-2.2-3.5-3.6l-4.5,0.2c-0.3-0.6-0.6-1.3-0.8-2l3.4-3c-0.2-0.8-0.2-1.6-0.2-2.5
				s0.1-1.7,0.2-2.5l-3.3-3c0.2-0.7,0.5-1.4,0.8-2l4.5,0.2c0.9-1.4,2.2-2.6,3.6-3.5l-0.2-4.5c0.6-0.3,1.3-0.6,2-0.8l3,3.4
				c0.8-0.2,1.6-0.2,2.5-0.2s1.7,0.1,2.5,0.2l3-3.3c0.7,0.2,1.4,0.5,2,0.8l-0.2,4.5c1.4,0.9,2.6,2.2,3.5,3.6l4.5-0.2
				c0.3,0.6,0.6,1.3,0.8,2l-3.4,3C66.4,131.2,66.5,132.1,66.4,132.9z"/>
		</g>
	</g>
	<g>
		<g>
			<g>
				
					<linearGradient id="big-wheel-three_00000009586657670160778010000002435778517878455937_" gradientUnits="userSpaceOnUse" x1="111.08" y1="251.7675" x2="171.08" y2="251.7675" gradientTransform="matrix(1 0 0 -1 0 300)">
					<stop  offset="0" style="stop-color:#FFFFFF"/>
					<stop  offset="0.8155" style="stop-color:#000000"/>
				</linearGradient>
				
					<path id="big-wheel-three" style="fill:url(#big-wheel-three_00000009586657670160778010000002435778517878455937_);stroke:#000000;stroke-miterlimit:10;" d="
					M165.3,48.4c0-1.6-0.1-3.1-0.4-4.6l6.2-5.6c-0.4-1.3-0.9-2.5-1.5-3.7l-8.3,0.4c-1.7-2.6-4-4.8-6.5-6.6l0.5-8.3
					c-1.2-0.6-2.4-1.1-3.7-1.6l-5.6,6.2c-1.5-0.3-3-0.5-4.6-0.5s-3.1,0.1-4.6,0.4l-5.6-6.2c-1.3,0.4-2.5,0.9-3.7,1.5l0.4,8.3
					c-2.6,1.7-4.8,3.9-6.6,6.5l-8.3-0.5c-0.6,1.2-1.1,2.4-1.6,3.7l6.2,5.6c-0.3,1.5-0.5,3-0.5,4.6s0.1,3.1,0.4,4.6l-6.2,5.6
					c0.4,1.3,0.9,2.5,1.5,3.7l8.3-0.4c1.7,2.6,4,4.8,6.5,6.6l-0.5,8.3c1.2,0.6,2.4,1.1,3.7,1.6l5.6-6.2c1.5,0.3,3,0.5,4.6,0.5
					s3.1-0.1,4.6-0.4l5.6,6.2c1.3-0.4,2.5-0.9,3.7-1.5l-0.4-8.3c2.6-1.7,4.8-3.9,6.6-6.5l8.3,0.5c0.6-1.2,1.1-2.4,1.6-3.7l-6.2-5.6
					C165.1,51.6,165.3,50,165.3,48.4z M154.1,48.4c0,0.9-0.1,1.7-0.2,2.5l3.3,3c-0.2,0.7-0.5,1.4-0.8,2l-4.5-0.2
					c-0.9,1.4-2.2,2.6-3.6,3.5l0.2,4.5c-0.6,0.3-1.3,0.6-2,0.8l-3-3.4c-0.8,0.2-1.6,0.2-2.5,0.2s-1.7-0.1-2.5-0.2l-3,3.3
					c-0.7-0.2-1.4-0.5-2-0.8l0.2-4.5c-1.4-0.9-2.6-2.2-3.5-3.6l-4.5,0.2c-0.3-0.6-0.6-1.3-0.8-2l3.4-3c-0.2-0.8-0.2-1.6-0.2-2.5
					s0.1-1.7,0.2-2.5l-3.3-3c0.2-0.7,0.5-1.4,0.8-2l4.5,0.2c0.9-1.4,2.2-2.6,3.6-3.5l-0.2-4.5c0.6-0.3,1.3-0.6,2-0.8l3,3.4
					c0.8-0.2,1.6-0.2,2.5-0.2s1.7,0.1,2.5,0.2l3-3.3c0.7,0.2,1.4,0.5,2,0.8l-0.2,4.5c1.4,0.9,2.6,2.2,3.5,3.6l4.5-0.2
					c0.3,0.6,0.6,1.3,0.8,2l-3.4,3C154.1,46.7,154.1,47.5,154.1,48.4z"/>
			</g>
		</g>
	</g>
	<g>
		<g>
			<g>
				<path id="small-wheel-one" class="st2" d="M79.4,87.8c0-0.5,0-1-0.1-1.6l2.1-1.8c-0.1-0.4-0.3-0.8-0.5-1.2l-2.8,0.1
					c-0.6-0.9-1.3-1.6-2.2-2.2l0.2-2.8c-0.4-0.2-0.8-0.4-1.2-0.5L73,79.9c-0.5-0.1-1-0.2-1.5-0.2s-1,0-1.5,0.1l-1.8-2.1
					c-0.4,0.1-0.8,0.3-1.2,0.5l0.1,2.8c-0.9,0.6-1.6,1.3-2.2,2.2L62.1,83c-0.2,0.4-0.4,0.8-0.5,1.2l2,1.9c-0.1,0.5-0.2,1-0.2,1.5
					s0,1,0.1,1.6L61.4,91c0.1,0.4,0.3,0.8,0.5,1.2l2.8-0.1c0.6,0.9,1.3,1.6,2.2,2.2l-0.2,2.8c0.4,0.2,0.8,0.4,1.2,0.5l1.9-2.1
					c0.5,0.1,1,0.2,1.5,0.2s1-0.1,1.5-0.1l1.9,2.1c0.4-0.1,0.8-0.3,1.2-0.5l-0.1-2.8c0.9-0.6,1.6-1.3,2.2-2.2l2.8,0.2
					c0.2-0.4,0.4-0.8,0.5-1.2l-2-1.9C79.3,88.9,79.4,88.4,79.4,87.8z M75.7,87.8c0,0.3,0,0.6-0.1,0.8l1.1,1
					c-0.1,0.2-0.2,0.4-0.3,0.7l-1.5-0.1c-0.3,0.5-0.7,0.9-1.2,1.2l0.1,1.5c-0.2,0.1-0.4,0.2-0.7,0.3l-1-1.1
					c-0.3,0.1-0.5,0.1-0.8,0.1s-0.6,0-0.8-0.1l-1,1.1c-0.2-0.1-0.4-0.2-0.7-0.3l0.1-1.5c-0.5-0.3-0.9-0.7-1.2-1.2l-1.5,0.1
					c-0.1-0.2-0.2-0.4-0.3-0.7l1.1-1c0-0.3-0.1-0.6-0.1-0.8s0-0.6,0.1-0.8l-1.1-1c0.1-0.2,0.2-0.4,0.3-0.7l1.5,0.1
					c0.3-0.5,0.7-0.9,1.2-1.2l-0.1-1.5c0.2-0.1,0.4-0.2,0.7-0.3l1,1.1c0.3,0,0.5-0.1,0.8-0.1s0.6,0,0.8,0.1l1-1.1
					c0.2,0.1,0.4,0.2,0.7,0.3l-0.1,1.5c0.5,0.3,0.9,0.7,1.2,1.2l1.5-0.1c0.1,0.2,0.2,0.4,0.3,0.7l-1.1,1
					C75.7,87.2,75.7,87.5,75.7,87.8z"/>
			</g>
		</g>
	</g>
	<g>
		<g>
			<g>
				<path id="small-wheel-two" class="st2" d="M158.6,93.8c0-0.5,0-1-0.1-1.5l2.1-1.8c-0.1-0.4-0.3-0.8-0.5-1.2l-2.8,0.1
					c-0.6-0.9-1.3-1.6-2.2-2.2l0.2-2.8c-0.4-0.2-0.8-0.4-1.2-0.5l-1.9,2.1c-0.5-0.1-1-0.2-1.5-0.2s-1,0-1.5,0.1l-1.8-2.1
					c-0.4,0.1-0.8,0.3-1.2,0.5l0.1,2.8c-0.9,0.6-1.6,1.3-2.2,2.2l-2.8-0.2c-0.2,0.4-0.4,0.8-0.5,1.2l2,1.9c-0.1,0.5-0.2,1-0.2,1.5
					s0,1,0.1,1.5l-2.1,1.8c0.1,0.4,0.3,0.8,0.5,1.2l2.8-0.1c0.6,0.9,1.3,1.6,2.2,2.2l-0.2,2.8c0.4,0.2,0.8,0.4,1.2,0.5l1.9-2
					c0.5,0.1,1,0.2,1.5,0.2s1,0,1.5-0.1l1.8,2.1c0.4-0.1,0.8-0.3,1.2-0.5l-0.1-2.8c0.9-0.6,1.6-1.3,2.2-2.2l2.8,0.2
					c0.2-0.4,0.4-0.8,0.5-1.2l-2-1.9C158.6,94.8,158.6,94.3,158.6,93.8z M154.9,93.7c0,0.3,0,0.6-0.1,0.8l1.1,1
					c-0.1,0.2-0.2,0.4-0.3,0.7l-1.5-0.1c-0.3,0.5-0.7,0.9-1.2,1.2l0.1,1.5c-0.2,0.1-0.4,0.2-0.7,0.3l-1-1.1c-0.3,0-0.5,0.1-0.8,0.1
					s-0.6,0-0.8-0.1l-1,1.1c-0.2-0.1-0.4-0.2-0.7-0.3l0.1-1.5c-0.5-0.3-0.9-0.7-1.2-1.2l-1.5,0.1c-0.1-0.2-0.2-0.4-0.3-0.7l1.1-1
					c0-0.3-0.1-0.5-0.1-0.8s0-0.6,0.1-0.8l-1.1-1c0.1-0.2,0.2-0.4,0.3-0.7l1.5,0.1c0.3-0.5,0.7-0.9,1.2-1.2l-0.1-1.5
					c0.2-0.1,0.4-0.2,0.7-0.3l1,1.1c0.3,0,0.5-0.1,0.8-0.1s0.6,0,0.8,0.1l1-1.1c0.2,0.1,0.4,0.2,0.7,0.3l-0.1,1.5
					c0.5,0.3,0.9,0.7,1.2,1.2l1.5-0.1c0.1,0.2,0.2,0.4,0.3,0.7l-1.1,1C154.9,93.2,154.9,93.5,154.9,93.7z"/>
			</g>
		</g>
	</g>
	<g>
		<g>
			
				<linearGradient id="big-wheel-two" gradientUnits="userSpaceOnUse" x1="82.4831" y1="193.8487" x2="139.3767" y2="193.8487" gradientTransform="matrix(0.9239 -0.3827 -0.3827 -0.9239 82.9092 329.6127)">
				<stop  offset="0" style="stop-color:#FFFFFF"/>
				<stop  offset="0.8155" style="stop-color:#000000"/>
			</linearGradient>
			
				<path id="big-wheel-two" style="fill:url(#big-wheel-one_00000141430608088336865990000010297325361443178404_);stroke:#000000;stroke-miterlimit:10;" d="
				M132.5,99.5c-0.6-1.4-1.2-2.7-2-3.9l3.4-7.2c-0.8-1-1.7-1.9-2.7-2.7l-7.1,3.4c-2.4-1.7-5.2-2.8-8.1-3.4l-2.6-7.5
				c-1.3-0.1-2.5-0.1-3.8-0.1l-2.7,7.5c-1.4,0.3-2.8,0.7-4.2,1.2c-1.4,0.6-2.7,1.2-3.9,2l-7.2-3.4c-1,0.8-1.9,1.7-2.7,2.7l3.4,7.1
				c-1.7,2.4-2.8,5.2-3.4,8.1l-7.5,2.6c-0.1,1.3-0.1,2.5-0.1,3.8l7.5,2.7c0.3,1.4,0.7,2.8,1.2,4.2c0.6,1.4,1.2,2.7,2,3.9l-3.4,7.2
				c0.8,1,1.7,1.9,2.7,2.7l7.1-3.4c2.4,1.7,5.2,2.8,8.1,3.4l2.6,7.5c1.3,0.1,2.5,0.1,3.8,0.1l2.7-7.5c1.4-0.3,2.8-0.7,4.2-1.2
				c1.4-0.6,2.7-1.2,3.9-2l7.2,3.4c1-0.8,1.9-1.7,2.7-2.7l-3.4-7.1c1.7-2.4,2.8-5.2,3.4-8.1l7.5-2.6c0.1-1.3,0.1-2.5,0.1-3.8
				l-7.5-2.7C133.4,102.3,133.1,100.9,132.5,99.5z M122.6,103.4c0.3,0.8,0.5,1.5,0.7,2.3l4,1.4c0.1,0.7,0.1,1.4,0,2l-4,1.5
				c-0.3,1.6-1,3.1-1.9,4.4l1.8,3.9c-0.4,0.5-0.9,1-1.5,1.4l-3.9-1.9c-0.6,0.5-1.3,0.8-2.1,1.1s-1.5,0.5-2.3,0.7l-1.4,4
				c-0.7,0.1-1.4,0.1-2,0l-1.5-4c-1.6-0.3-3.1-1-4.4-1.9l-3.9,1.8c-0.5-0.4-1-0.9-1.4-1.5l1.9-3.9c-0.5-0.6-0.8-1.3-1.1-2.1
				c-0.3-0.8-0.5-1.5-0.7-2.3l-4-1.4c-0.1-0.7-0.1-1.4,0-2l4-1.5c0.3-1.6,1-3.1,1.9-4.4l-1.8-3.9c0.4-0.5,0.9-1,1.5-1.4l3.9,1.9
				c0.6-0.5,1.3-0.8,2.1-1.1c0.8-0.3,1.5-0.5,2.3-0.7l1.4-4c0.7-0.1,1.4-0.1,2,0l1.5,4c1.6,0.3,3.1,1,4.4,1.9L122,96
				c0.5,0.4,1,0.9,1.4,1.5l-1.9,3.9C122,101.9,122.4,102.7,122.6,103.4z"/>
		</g>
	</g>
</g>
</svg>
